<?xml version="1.0" encoding="UTF-8" standalone="no"?>
<!-- Created with Inkscape (http://www.inkscape.org/) -->

<svg
   xmlns:dc="http://purl.org/dc/elements/1.1/"
   xmlns:cc="http://creativecommons.org/ns#"
   xmlns:rdf="http://www.w3.org/1999/02/22-rdf-syntax-ns#"
   xmlns:svg="http://www.w3.org/2000/svg"
   xmlns="http://www.w3.org/2000/svg"
   xmlns:sodipodi="http://sodipodi.sourceforge.net/DTD/sodipodi-0.dtd"
   xmlns:inkscape="http://www.inkscape.org/namespaces/inkscape"
   width="652.57141"
   height="429.71429"
   id="svg2"
   version="1.1"
   inkscape:version="0.91 r13725"
   sodipodi:docname="taylor_hood_tree.svg">
  <sodipodi:namedview
     id="base"
     pagecolor="#ffffff"
     bordercolor="#666666"
     borderopacity="1.0"
     inkscape:pageopacity="0.0"
     inkscape:pageshadow="2"
     inkscape:zoom="0.7"
     inkscape:cx="-118"
     inkscape:cy="164.85714"
     inkscape:document-units="px"
     inkscape:current-layer="layer1"
     showgrid="false"
     fit-margin-top="0"
     fit-margin-left="0"
     fit-margin-right="0"
     fit-margin-bottom="0"
     inkscape:window-width="1366"
     inkscape:window-height="709"
     inkscape:window-x="-4"
     inkscape:window-y="0"
     inkscape:window-maximized="1" />
  <defs
     id="defs4" />
  <metadata
     id="metadata7">
    <rdf:RDF>
      <cc:Work
         rdf:about="">
        <dc:format>image/svg+xml</dc:format>
        <dc:type
           rdf:resource="http://purl.org/dc/dcmitype/StillImage" />
        <dc:title />
      </cc:Work>
    </rdf:RDF>
  </metadata>
  <g
     transform="translate(-140.85715,-267.50504)"
     id="layer1"
     inkscape:groupmode="layer"
     inkscape:label="Ebene 1">
    <rect
       ry="28.571428"
       y="269.50504"
       x="142.85715"
       height="425.71429"
       width="648.57141"
       id="rect2995"
       style="color:#000000;fill:#e6e6e6;fill-opacity:1;fill-rule:nonzero;stroke:#000000;stroke-width:4;stroke-linecap:butt;stroke-linejoin:miter;stroke-miterlimit:4;stroke-opacity:1;stroke-dasharray:none;stroke-dashoffset:0;marker:none;visibility:visible;display:inline;overflow:visible;enable-background:accumulate" />
    <rect
       ry="28.571428"
       y="433.79074"
       x="155.71431"
       height="250"
       width="425.71445"
       id="rect2995-0"
       style="color:#000000;fill:#a0a0a0;fill-opacity:1;fill-rule:nonzero;stroke:#000000;stroke-width:4;stroke-linecap:butt;stroke-linejoin:miter;stroke-miterlimit:4;stroke-opacity:1;stroke-dasharray:none;stroke-dashoffset:0;marker:none;visibility:visible;display:inline;overflow:visible;enable-background:accumulate" />
    <path
       inkscape:connector-curvature="0"
       id="path2985"
       d="m 354.28571,498.07647 0,128.57143"
       style="fill:none;stroke:#000000;stroke-width:1px;stroke-linecap:butt;stroke-linejoin:miter;stroke-opacity:1" />
    <path
       inkscape:connector-curvature="0"
       id="path2987"
       d="M 324.28571,498.07647 196.42857,625.93361"
       style="fill:none;stroke:#000000;stroke-width:1px;stroke-linecap:butt;stroke-linejoin:miter;stroke-opacity:1" />
    <path
       inkscape:connector-curvature="0"
       id="path2989"
       d="m 388.57143,498.07647 125,127.85715"
       style="fill:none;stroke:#000000;stroke-width:1px;stroke-linecap:butt;stroke-linejoin:miter;stroke-opacity:1"
       sodipodi:nodetypes="cc" />
    <path
       inkscape:connector-curvature="0"
       id="path2991"
       d="M 390,458.07647 525.71429,322.36218"
       style="fill:none;stroke:#000000;stroke-width:1px;stroke-linecap:butt;stroke-linejoin:miter;stroke-opacity:1" />
    <path
       inkscape:connector-curvature="0"
       id="path2993"
       d="M 584.28571,322.36218 716.42857,454.50504"
       style="fill:none;stroke:#000000;stroke-width:1px;stroke-linecap:butt;stroke-linejoin:miter;stroke-opacity:1" />
    <g
       transform="translate(351.42857,65.714286)"
       id="g3471">
      <g
         style="font-style:normal;font-variant:normal;font-weight:normal;font-stretch:normal;letter-spacing:normal;word-spacing:normal;text-anchor:start;fill:none;fill-opacity:1;fill-rule:evenodd;stroke:#000000;stroke-linecap:butt;stroke-linejoin:miter;stroke-miterlimit:10.43299961;stroke-dasharray:none;stroke-dashoffset:0;stroke-opacity:1"
         id="content"
         transform="matrix(0.61387756,0,0,-0.61387756,-107.42857,489.42856)"
         xml:space="preserve"
         stroke-miterlimit="10.433"
         font-style="normal"
         font-variant="normal"
         font-weight="normal"
         font-stretch="normal"
         font-size-adjust="none"
         letter-spacing="normal"
         word-spacing="normal"><path
           style="fill:#000000;stroke-width:0"
           inkscape:connector-curvature="0"
           d="m 463.49,410.09 -0.05,-0.18 -0.04,-0.17 -0.05,-0.16 -0.04,-0.15 -0.04,-0.15 -0.05,-0.13 -0.05,-0.13 -0.05,-0.12 -0.05,-0.11 -0.06,-0.11 -0.07,-0.1 -0.07,-0.09 -0.07,-0.09 -0.09,-0.07 -0.09,-0.08 -0.11,-0.06 -0.11,-0.07 -0.13,-0.05 -0.13,-0.05 -0.15,-0.05 -0.16,-0.04 -0.09,-0.02 -0.09,-0.01 -0.09,-0.02 -0.1,-0.02 -0.1,-0.01 -0.1,-0.01 -0.11,-0.01 -0.12,-0.02 -0.11,-0.01 -0.13,-0.01 -0.12,0 -0.13,-0.01 -0.14,-0.01 -0.14,0 -0.14,-0.01 -0.15,0 -0.16,-0.01 -0.16,0 -0.16,0 -0.17,0 -0.18,0 -0.18,0 c -0.85,0 -1.35,0 -1.35,-1 0,-0.55 0.46,-0.55 1.35,-0.55 l 17.78,0 c 7.87,0 13.75,5.87 13.75,10.76 0,3.58 -2.89,6.47 -7.72,7.02 5.19,0.95 10.42,4.64 10.42,9.38 0,3.68 -3.3,6.87 -9.28,6.87 l -0.69,-1.55 c 4.38,0 5.42,-2.93 5.42,-5.12 0,-4.39 -4.28,-9.13 -10.35,-9.13 l -7.27,0 -0.3,-1.09 9.41,0 c 4.78,0 5.73,-3.69 5.73,-5.83 0,-4.94 -4.43,-9.76 -10.31,-9.76 l -6.78,0 c -0.69,0 -0.8,0 -1.09,0.04 -0.5,0.05 -0.64,0.1 -0.64,0.5 0,0.14 0,0.25 0.25,1.14 l 3.43,13.91 0.3,1.09 3.08,12.36 c 0.45,1.74 0.54,1.89 2.7,1.89 l 6.42,0 0.69,1.55 -16.73,0 c -0.94,0 -1.44,0 -1.44,-1 0,-0.55 0.44,-0.55 1.39,-0.55 0.09,0 1.05,0 1.89,-0.09 0.89,-0.11 1.34,-0.16 1.34,-0.8 0,-0.2 -0.04,-0.36 -0.2,-0.95 z"
           id="path3474" /><path
           style="fill:#000000;stroke-width:0"
           inkscape:connector-curvature="0"
           d="m 519.27,422.32 -23.54,0 -0.74,-8.01 1.19,0 c 0.48,6.01 1.5,6.75 6.86,6.75 0.7,0 1.7,0 2.06,-0.03 0.77,-0.14 0.77,-0.52 0.77,-1.33 l 0,-18.08 c 0,-1.16 0,-1.61 -3.63,-1.61 l -1.47,0 0,-1.25 c 1.72,0.14 4.96,0.14 6.77,0.14 1.81,0 5.01,0 6.72,-0.14 l 0,1.25 -1.46,0 c -3.62,0 -3.62,0.45 -3.62,1.61 l 0,18.08 c 0,0.81 0,1.19 0.77,1.33 0.34,0.03 1.35,0.03 2.04,0.03 1.96,0 3.46,0 4.67,-0.69 1.57,-0.95 1.82,-3.17 1.85,-3.34 l 0.31,-2.72 1.19,0 z"
           id="path3476" /><path
           style="fill:#000000;stroke-width:0"
           inkscape:connector-curvature="0"
           d="m 545.55,419.73 0.01,0.11 0,0.1 0,0.1 0,0.1 0.01,0.09 0.01,0.09 0.01,0.08 0.02,0.08 0.02,0.07 0.02,0.07 0.03,0.07 0.04,0.06 0.04,0.06 0.05,0.06 0.06,0.05 0.06,0.04 0.07,0.05 0.08,0.04 0.04,0.02 0.04,0.02 0.05,0.02 0.05,0.01 0.05,0.02 0.06,0.01 0.05,0.02 0.06,0.01 0.07,0.01 0.06,0.02 0.07,0.01 0.07,0.01 0.07,0.01 0.08,0.01 0.08,0.01 0.08,0.01 0.08,0 0.09,0.01 0.09,0 0.1,0.01 0.1,0 0.1,0.01 0.11,0 0.1,0 0.12,0.01 0.11,0 0.12,0 0.12,0 0.85,0 0,1.25 c -1.75,-0.06 -3.97,-0.14 -5.24,-0.14 -1.28,0 -3.51,0.08 -5.25,0.14 l 0,-1.25 0.83,0 c 2.69,0 2.75,-0.35 2.75,-1.58 l 0,-7.97 -11.64,0 0,7.97 c 0,1.19 0.08,1.58 2.77,1.58 l 0.83,0 0,1.25 c -1.74,-0.06 -3.97,-0.14 -5.22,-0.14 -1.3,0 -3.53,0.08 -5.27,0.14 l 0,-1.25 0.83,0 c 2.69,0 2.76,-0.35 2.76,-1.58 l 0,-18.14 c 0,-1.19 -0.07,-1.58 -2.76,-1.58 l -0.83,0 0,-1.25 c 1.74,0.06 3.97,0.14 5.22,0.14 1.3,0 3.53,-0.08 5.27,-0.14 l 0,1.25 -0.83,0 c -2.69,0 -2.77,0.36 -2.77,1.58 l 0,8.92 11.64,0 0,-8.92 c 0,-1.19 -0.06,-1.58 -2.75,-1.58 l -0.83,0 0,-1.25 c 1.74,0.06 3.97,0.14 5.22,0.14 1.3,0 3.52,-0.08 5.27,-0.14 l 0,1.25 -0.85,0 c -2.67,0 -2.75,0.36 -2.75,1.58 z"
           id="path3478" /></g>    </g>
    <g
       id="g3512"
       transform="translate(164.28571,244.28571)">
      <g
         word-spacing="normal"
         letter-spacing="normal"
         font-size-adjust="none"
         font-stretch="normal"
         font-weight="normal"
         font-variant="normal"
         font-style="normal"
         stroke-miterlimit="10.433"
         xml:space="preserve"
         transform="matrix(0.61387756,0,0,-0.61387756,-107.42857,489.42856)"
         id="g3514"
         style="font-style:normal;font-variant:normal;font-weight:normal;font-stretch:normal;letter-spacing:normal;word-spacing:normal;text-anchor:start;fill:none;fill-opacity:1;fill-rule:evenodd;stroke:#000000;stroke-linecap:butt;stroke-linejoin:miter;stroke-miterlimit:10.43299961;stroke-dasharray:none;stroke-dashoffset:0;stroke-opacity:1"><path
           id="path3516"
           d="m 463.49,410.09 -0.05,-0.18 -0.04,-0.17 -0.05,-0.16 -0.04,-0.15 -0.04,-0.15 -0.05,-0.13 -0.05,-0.13 -0.05,-0.12 -0.05,-0.11 -0.06,-0.11 -0.07,-0.1 -0.07,-0.09 -0.07,-0.09 -0.09,-0.07 -0.09,-0.08 -0.11,-0.06 -0.11,-0.07 -0.13,-0.05 -0.13,-0.05 -0.15,-0.05 -0.16,-0.04 -0.09,-0.02 -0.09,-0.01 -0.09,-0.02 -0.1,-0.02 -0.1,-0.01 -0.1,-0.01 -0.11,-0.01 -0.12,-0.02 -0.11,-0.01 -0.13,-0.01 -0.12,0 -0.13,-0.01 -0.14,-0.01 -0.14,0 -0.14,-0.01 -0.15,0 -0.16,-0.01 -0.16,0 -0.16,0 -0.17,0 -0.18,0 -0.18,0 c -0.85,0 -1.35,0 -1.35,-1 0,-0.55 0.46,-0.55 1.35,-0.55 l 17.78,0 c 7.87,0 13.75,5.87 13.75,10.76 0,3.58 -2.89,6.47 -7.72,7.02 5.19,0.95 10.42,4.64 10.42,9.38 0,3.68 -3.3,6.87 -9.28,6.87 l -0.69,-1.55 c 4.38,0 5.42,-2.93 5.42,-5.12 0,-4.39 -4.28,-9.13 -10.35,-9.13 l -7.27,0 -0.3,-1.09 9.41,0 c 4.78,0 5.73,-3.69 5.73,-5.83 0,-4.94 -4.43,-9.76 -10.31,-9.76 l -6.78,0 c -0.69,0 -0.8,0 -1.09,0.04 -0.5,0.05 -0.64,0.1 -0.64,0.5 0,0.14 0,0.25 0.25,1.14 l 3.43,13.91 0.3,1.09 3.08,12.36 c 0.45,1.74 0.54,1.89 2.7,1.89 l 6.42,0 0.69,1.55 -16.73,0 c -0.94,0 -1.44,0 -1.44,-1 0,-0.55 0.44,-0.55 1.39,-0.55 0.09,0 1.05,0 1.89,-0.09 0.89,-0.11 1.34,-0.16 1.34,-0.8 0,-0.2 -0.04,-0.36 -0.2,-0.95 z"
           inkscape:connector-curvature="0"
           style="fill:#000000;stroke-width:0" /><path
           id="path3518"
           d="m 517.65,419.01 0.09,0.21 0.1,0.2 0.05,0.1 0.06,0.1 0.06,0.1 0.07,0.1 0.07,0.1 0.08,0.1 0.08,0.09 0.08,0.09 0.09,0.1 0.1,0.08 0.1,0.09 0.11,0.08 0.12,0.08 0.12,0.08 0.13,0.07 0.13,0.07 0.15,0.07 0.15,0.06 0.16,0.06 0.16,0.05 0.18,0.05 0.19,0.04 0.19,0.03 0.2,0.04 0.22,0.02 0.22,0.02 0.23,0.01 0.25,0.01 0,1.25 c -1.02,-0.11 -2.38,-0.14 -3.39,-0.14 -1.4,0 -3.97,0.14 -4.18,0.14 l 0,-1.25 c 1.28,0 2.41,-0.56 2.41,-1.64 0,-0.25 -0.08,-0.49 -0.19,-0.74 l -7.2,-16.82 -7.53,17.67 c -0.21,0.4 -0.21,0.48 -0.21,0.59 0,0.94 1.82,0.94 2.75,0.94 l 0,1.25 c -1.75,-0.06 -3.96,-0.14 -5.18,-0.14 -1.75,0 -4.36,0.14 -4.47,0.14 l 0,-1.25 0.59,0 c 1.88,0 2.47,-0.17 2.92,-1.25 l 9.07,-21.19 c 0.25,-0.56 0.34,-0.81 1.01,-0.81 0.35,0 0.69,0 1.02,0.73 z"
           inkscape:connector-curvature="0"
           style="fill:#000000;stroke-width:0" /></g>    </g>
    <g
       transform="translate(531.42857,241.42857)"
       id="g3560">
      <g
         style="font-style:normal;font-variant:normal;font-weight:normal;font-stretch:normal;letter-spacing:normal;word-spacing:normal;text-anchor:start;fill:none;fill-opacity:1;fill-rule:evenodd;stroke:#000000;stroke-linecap:butt;stroke-linejoin:miter;stroke-miterlimit:10.43299961;stroke-dasharray:none;stroke-dashoffset:0;stroke-opacity:1"
         id="g3562"
         transform="matrix(0.61387756,0,0,-0.61387756,-107.42857,489.42856)"
         xml:space="preserve"
         stroke-miterlimit="10.433"
         font-style="normal"
         font-variant="normal"
         font-weight="normal"
         font-stretch="normal"
         font-size-adjust="none"
         letter-spacing="normal"
         word-spacing="normal"><path
           style="fill:#000000;stroke-width:0"
           inkscape:connector-curvature="0"
           d="m 463.49,410.09 -0.05,-0.18 -0.04,-0.17 -0.05,-0.16 -0.04,-0.15 -0.04,-0.15 -0.05,-0.13 -0.05,-0.13 -0.05,-0.12 -0.05,-0.11 -0.06,-0.11 -0.07,-0.1 -0.07,-0.09 -0.07,-0.09 -0.09,-0.07 -0.09,-0.08 -0.11,-0.06 -0.11,-0.07 -0.13,-0.05 -0.13,-0.05 -0.15,-0.05 -0.16,-0.04 -0.09,-0.02 -0.09,-0.01 -0.09,-0.02 -0.1,-0.02 -0.1,-0.01 -0.1,-0.01 -0.11,-0.01 -0.12,-0.02 -0.11,-0.01 -0.13,-0.01 -0.12,0 -0.13,-0.01 -0.14,-0.01 -0.14,0 -0.14,-0.01 -0.15,0 -0.16,-0.01 -0.16,0 -0.16,0 -0.17,0 -0.18,0 -0.18,0 c -0.85,0 -1.35,0 -1.35,-1 0,-0.55 0.46,-0.55 1.35,-0.55 l 17.78,0 c 7.87,0 13.75,5.87 13.75,10.76 0,3.58 -2.89,6.47 -7.72,7.02 5.19,0.95 10.42,4.64 10.42,9.38 0,3.68 -3.3,6.87 -9.28,6.87 l -0.69,-1.55 c 4.38,0 5.42,-2.93 5.42,-5.12 0,-4.39 -4.28,-9.13 -10.35,-9.13 l -7.27,0 -0.3,-1.09 9.41,0 c 4.78,0 5.73,-3.69 5.73,-5.83 0,-4.94 -4.43,-9.76 -10.31,-9.76 l -6.78,0 c -0.69,0 -0.8,0 -1.09,0.04 -0.5,0.05 -0.64,0.1 -0.64,0.5 0,0.14 0,0.25 0.25,1.14 l 3.43,13.91 0.3,1.09 3.08,12.36 c 0.45,1.74 0.54,1.89 2.7,1.89 l 6.42,0 0.69,1.55 -16.73,0 c -0.94,0 -1.44,0 -1.44,-1 0,-0.55 0.44,-0.55 1.39,-0.55 0.09,0 1.05,0 1.89,-0.09 0.89,-0.11 1.34,-0.16 1.34,-0.8 0,-0.2 -0.04,-0.36 -0.2,-0.95 z"
           id="path3564" /><path
           style="fill:#000000;stroke-width:0"
           inkscape:connector-curvature="0"
           d="m 503.01,393.26 -0.11,0 -0.1,0 -0.1,0 -0.09,0 -0.1,0 -0.09,0 -0.09,0 -0.08,0 -0.09,0.01 -0.08,0 -0.08,0 -0.07,0 -0.08,0 -0.07,0.01 -0.07,0 -0.07,0.01 -0.06,0 -0.06,0.01 -0.12,0.01 -0.11,0.01 -0.1,0.02 -0.1,0.02 -0.08,0.03 -0.08,0.03 -0.08,0.03 -0.06,0.04 -0.06,0.04 -0.06,0.05 -0.04,0.05 -0.05,0.06 -0.03,0.06 -0.04,0.07 -0.02,0.07 -0.03,0.09 -0.02,0.09 -0.01,0.09 -0.01,0.11 -0.01,0.11 -0.01,0.12 0,0.13 0,0.13 0,5.67 c 0.17,-0.17 1.81,-2.01 4.73,-2.01 l -0.2,0.97 c -3.08,0 -4.44,2.68 -4.53,2.89 l 0,8.09 c 1.05,1.74 3.06,2.64 4.9,2.64 2.93,0 5.19,-3.06 5.19,-6.72 0,-3.98 -2.61,-6.9 -5.56,-6.9 l 0.2,-0.97 c 4.6,0 8.53,3.44 8.53,7.87 0,4.28 -3.54,7.83 -7.96,7.83 -1.99,0 -4.02,-0.72 -5.44,-2.12 l 0,2.12 -5.24,-0.37 0,-1.25 c 2.44,0 2.63,-0.19 2.63,-1.64 l 0,-16.1 c 0,-1.5 -0.36,-1.5 -2.63,-1.5 l 0,-1.26 c 0.08,0 2.52,0.14 3.97,0.14 1.3,0 3.71,-0.1 4.02,-0.14 z"
           id="path3566" /></g>    </g>
    <g
       id="g3616"
       transform="translate(-8.5714286,417.14286)">
      <g
         word-spacing="normal"
         letter-spacing="normal"
         font-size-adjust="none"
         font-stretch="normal"
         font-weight="normal"
         font-variant="normal"
         font-style="normal"
         stroke-miterlimit="10.433"
         xml:space="preserve"
         transform="matrix(0.61387756,0,0,-0.61387756,-107.42857,489.42856)"
         id="g3618"
         style="font-style:normal;font-variant:normal;font-weight:normal;font-stretch:normal;letter-spacing:normal;word-spacing:normal;text-anchor:start;fill:none;fill-opacity:1;fill-rule:evenodd;stroke:#000000;stroke-linecap:butt;stroke-linejoin:miter;stroke-miterlimit:10.43299961;stroke-dasharray:none;stroke-dashoffset:0;stroke-opacity:1"><path
           id="path3620"
           d="m 463.49,410.09 -0.05,-0.18 -0.04,-0.17 -0.05,-0.16 -0.04,-0.15 -0.04,-0.15 -0.05,-0.13 -0.05,-0.13 -0.05,-0.12 -0.05,-0.11 -0.06,-0.11 -0.07,-0.1 -0.07,-0.09 -0.07,-0.09 -0.09,-0.07 -0.09,-0.08 -0.11,-0.06 -0.11,-0.07 -0.13,-0.05 -0.13,-0.05 -0.15,-0.05 -0.16,-0.04 -0.09,-0.02 -0.09,-0.01 -0.09,-0.02 -0.1,-0.02 -0.1,-0.01 -0.1,-0.01 -0.11,-0.01 -0.12,-0.02 -0.11,-0.01 -0.13,-0.01 -0.12,0 -0.13,-0.01 -0.14,-0.01 -0.14,0 -0.14,-0.01 -0.15,0 -0.16,-0.01 -0.16,0 -0.16,0 -0.17,0 -0.18,0 -0.18,0 c -0.85,0 -1.35,0 -1.35,-1 0,-0.55 0.46,-0.55 1.35,-0.55 l 17.78,0 c 7.87,0 13.75,5.87 13.75,10.76 0,3.58 -2.89,6.47 -7.72,7.02 5.19,0.95 10.42,4.64 10.42,9.38 0,3.68 -3.3,6.87 -9.28,6.87 l -0.69,-1.55 c 4.38,0 5.42,-2.93 5.42,-5.12 0,-4.39 -4.28,-9.13 -10.35,-9.13 l -7.27,0 -0.3,-1.09 9.41,0 c 4.78,0 5.73,-3.69 5.73,-5.83 0,-4.94 -4.43,-9.76 -10.31,-9.76 l -6.78,0 c -0.69,0 -0.8,0 -1.09,0.04 -0.5,0.05 -0.64,0.1 -0.64,0.5 0,0.14 0,0.25 0.25,1.14 l 3.43,13.91 0.3,1.09 3.08,12.36 c 0.45,1.74 0.54,1.89 2.7,1.89 l 6.42,0 0.69,1.55 -16.73,0 c -0.94,0 -1.44,0 -1.44,-1 0,-0.55 0.44,-0.55 1.39,-0.55 0.09,0 1.05,0 1.89,-0.09 0.89,-0.11 1.34,-0.16 1.34,-0.8 0,-0.2 -0.04,-0.36 -0.2,-0.95 z"
           inkscape:connector-curvature="0"
           style="fill:#000000;stroke-width:0" /><path
           id="path3622"
           d="m 517.65,419.01 0.09,0.21 0.1,0.2 0.05,0.1 0.06,0.1 0.06,0.1 0.07,0.1 0.07,0.1 0.08,0.1 0.08,0.09 0.08,0.09 0.09,0.1 0.1,0.08 0.1,0.09 0.11,0.08 0.12,0.08 0.12,0.08 0.13,0.07 0.13,0.07 0.15,0.07 0.15,0.06 0.16,0.06 0.16,0.05 0.18,0.05 0.19,0.04 0.19,0.03 0.2,0.04 0.22,0.02 0.22,0.02 0.23,0.01 0.25,0.01 0,1.25 c -1.02,-0.11 -2.38,-0.14 -3.39,-0.14 -1.4,0 -3.97,0.14 -4.18,0.14 l 0,-1.25 c 1.28,0 2.41,-0.56 2.41,-1.64 0,-0.25 -0.08,-0.49 -0.19,-0.74 l -7.2,-16.82 -7.53,17.67 c -0.21,0.4 -0.21,0.48 -0.21,0.59 0,0.94 1.82,0.94 2.75,0.94 l 0,1.25 c -1.75,-0.06 -3.96,-0.14 -5.18,-0.14 -1.75,0 -4.36,0.14 -4.47,0.14 l 0,-1.25 0.59,0 c 1.88,0 2.47,-0.17 2.92,-1.25 l 9.07,-21.19 c 0.25,-0.56 0.34,-0.81 1.01,-0.81 0.35,0 0.69,0 1.02,0.73 z"
           inkscape:connector-curvature="0"
           style="fill:#000000;stroke-width:0" /><path
           id="path3624"
           d="m 529.8,399.32 0,-0.09 0,-0.11 -0.01,-0.12 0,-0.13 0,-0.14 -0.01,-0.15 -0.01,-0.15 -0.02,-0.17 -0.01,-0.17 -0.03,-0.18 -0.02,-0.19 -0.04,-0.19 -0.04,-0.2 -0.04,-0.21 -0.05,-0.21 -0.06,-0.22 -0.07,-0.22 -0.08,-0.22 -0.08,-0.23 -0.1,-0.23 -0.1,-0.23 -0.12,-0.24 -0.12,-0.23 -0.14,-0.24 -0.15,-0.24 -0.16,-0.24 -0.18,-0.24 -0.18,-0.24 -0.21,-0.24 -0.21,-0.23 -0.23,-0.24 -0.25,-0.23 c -0.14,-0.14 -0.25,-0.25 -0.25,-0.42 0,-0.22 0.25,-0.53 0.48,-0.53 0.46,0 3.46,2.76 3.46,6.96 0,2.1 -0.8,3.8 -2.44,3.8 -1.22,0 -1.99,-0.94 -1.99,-2.01 0,-0.83 0.57,-1.99 2.02,-1.99 0.87,0 1.39,0.52 1.44,0.56 z"
           inkscape:connector-curvature="0"
           style="fill:#000000;stroke-width:0" /><path
           id="path3626"
           d="m 545.67,420.92 0,0.04 0,0.04 0,0.05 0,0.04 0,0.03 0,0.04 -0.01,0.04 0,0.03 0,0.04 0,0.03 0,0.03 0,0.03 -0.01,0.03 0,0.03 0,0.03 -0.01,0.02 0,0.03 -0.01,0.02 0,0.03 -0.01,0.02 -0.01,0.04 -0.01,0.04 -0.02,0.03 -0.02,0.03 -0.02,0.03 -0.03,0.03 -0.02,0.02 -0.03,0.02 -0.04,0.02 -0.04,0.01 -0.04,0.01 -0.04,0.02 -0.02,0 -0.03,0 -0.02,0.01 -0.03,0 -0.03,0.01 -0.03,0 -0.03,0 -0.03,0 -0.03,0 -0.03,0.01 -0.04,0 -0.03,0 -0.04,0 -0.04,0 -0.03,0 -0.05,0 -0.04,0 -0.04,0 -0.04,0 -0.05,0 c -2.23,-2.2 -5.39,-2.23 -6.83,-2.23 l 0,-1.25 c 0.85,0 3.14,0 5.05,0.97 l 0,-17.77 c 0,-1.16 0,-1.61 -3.49,-1.61 l -1.31,0 0,-1.25 c 0.63,0.03 4.91,0.14 6.21,0.14 1.07,0 5.47,-0.11 6.23,-0.14 l 0,1.25 -1.33,0 c -3.48,0 -3.48,0.45 -3.48,1.61 z"
           inkscape:connector-curvature="0"
           style="fill:#000000;stroke-width:0" /></g>    </g>
    <g
       transform="translate(150,417.14286)"
       id="g3688">
      <g
         style="font-style:normal;font-variant:normal;font-weight:normal;font-stretch:normal;letter-spacing:normal;word-spacing:normal;text-anchor:start;fill:none;fill-opacity:1;fill-rule:evenodd;stroke:#000000;stroke-linecap:butt;stroke-linejoin:miter;stroke-miterlimit:10.43299961;stroke-dasharray:none;stroke-dashoffset:0;stroke-opacity:1"
         id="g3690"
         transform="matrix(0.61387756,0,0,-0.61387756,-107.42857,489.42856)"
         xml:space="preserve"
         stroke-miterlimit="10.433"
         font-style="normal"
         font-variant="normal"
         font-weight="normal"
         font-stretch="normal"
         font-size-adjust="none"
         letter-spacing="normal"
         word-spacing="normal"><path
           style="fill:#000000;stroke-width:0"
           inkscape:connector-curvature="0"
           d="m 463.49,410.09 -0.05,-0.18 -0.04,-0.17 -0.05,-0.16 -0.04,-0.15 -0.04,-0.15 -0.05,-0.13 -0.05,-0.13 -0.05,-0.12 -0.05,-0.11 -0.06,-0.11 -0.07,-0.1 -0.07,-0.09 -0.07,-0.09 -0.09,-0.07 -0.09,-0.08 -0.11,-0.06 -0.11,-0.07 -0.13,-0.05 -0.13,-0.05 -0.15,-0.05 -0.16,-0.04 -0.09,-0.02 -0.09,-0.01 -0.09,-0.02 -0.1,-0.02 -0.1,-0.01 -0.1,-0.01 -0.11,-0.01 -0.12,-0.02 -0.11,-0.01 -0.13,-0.01 -0.12,0 -0.13,-0.01 -0.14,-0.01 -0.14,0 -0.14,-0.01 -0.15,0 -0.16,-0.01 -0.16,0 -0.16,0 -0.17,0 -0.18,0 -0.18,0 c -0.85,0 -1.35,0 -1.35,-1 0,-0.55 0.46,-0.55 1.35,-0.55 l 17.78,0 c 7.87,0 13.75,5.87 13.75,10.76 0,3.58 -2.89,6.47 -7.72,7.02 5.19,0.95 10.42,4.64 10.42,9.38 0,3.68 -3.3,6.87 -9.28,6.87 l -0.69,-1.55 c 4.38,0 5.42,-2.93 5.42,-5.12 0,-4.39 -4.28,-9.13 -10.35,-9.13 l -7.27,0 -0.3,-1.09 9.41,0 c 4.78,0 5.73,-3.69 5.73,-5.83 0,-4.94 -4.43,-9.76 -10.31,-9.76 l -6.78,0 c -0.69,0 -0.8,0 -1.09,0.04 -0.5,0.05 -0.64,0.1 -0.64,0.5 0,0.14 0,0.25 0.25,1.14 l 3.43,13.91 0.3,1.09 3.08,12.36 c 0.45,1.74 0.54,1.89 2.7,1.89 l 6.42,0 0.69,1.55 -16.73,0 c -0.94,0 -1.44,0 -1.44,-1 0,-0.55 0.44,-0.55 1.39,-0.55 0.09,0 1.05,0 1.89,-0.09 0.89,-0.11 1.34,-0.16 1.34,-0.8 0,-0.2 -0.04,-0.36 -0.2,-0.95 z"
           id="path3692" /><path
           style="fill:#000000;stroke-width:0"
           inkscape:connector-curvature="0"
           d="m 517.65,419.01 0.09,0.21 0.1,0.2 0.05,0.1 0.06,0.1 0.06,0.1 0.07,0.1 0.07,0.1 0.08,0.1 0.08,0.09 0.08,0.09 0.09,0.1 0.1,0.08 0.1,0.09 0.11,0.08 0.12,0.08 0.12,0.08 0.13,0.07 0.13,0.07 0.15,0.07 0.15,0.06 0.16,0.06 0.16,0.05 0.18,0.05 0.19,0.04 0.19,0.03 0.2,0.04 0.22,0.02 0.22,0.02 0.23,0.01 0.25,0.01 0,1.25 c -1.02,-0.11 -2.38,-0.14 -3.39,-0.14 -1.4,0 -3.97,0.14 -4.18,0.14 l 0,-1.25 c 1.28,0 2.41,-0.56 2.41,-1.64 0,-0.25 -0.08,-0.49 -0.19,-0.74 l -7.2,-16.82 -7.53,17.67 c -0.21,0.4 -0.21,0.48 -0.21,0.59 0,0.94 1.82,0.94 2.75,0.94 l 0,1.25 c -1.75,-0.06 -3.96,-0.14 -5.18,-0.14 -1.75,0 -4.36,0.14 -4.47,0.14 l 0,-1.25 0.59,0 c 1.88,0 2.47,-0.17 2.92,-1.25 l 9.07,-21.19 c 0.25,-0.56 0.34,-0.81 1.01,-0.81 0.35,0 0.69,0 1.02,0.73 z"
           id="path3694" /><path
           style="fill:#000000;stroke-width:0"
           inkscape:connector-curvature="0"
           d="m 529.8,399.32 0,-0.09 0,-0.11 -0.01,-0.12 0,-0.13 0,-0.14 -0.01,-0.15 -0.01,-0.15 -0.02,-0.17 -0.01,-0.17 -0.03,-0.18 -0.02,-0.19 -0.04,-0.19 -0.04,-0.2 -0.04,-0.21 -0.05,-0.21 -0.06,-0.22 -0.07,-0.22 -0.08,-0.22 -0.08,-0.23 -0.1,-0.23 -0.1,-0.23 -0.12,-0.24 -0.12,-0.23 -0.14,-0.24 -0.15,-0.24 -0.16,-0.24 -0.18,-0.24 -0.18,-0.24 -0.21,-0.24 -0.21,-0.23 -0.23,-0.24 -0.25,-0.23 c -0.14,-0.14 -0.25,-0.25 -0.25,-0.42 0,-0.22 0.25,-0.53 0.48,-0.53 0.46,0 3.46,2.76 3.46,6.96 0,2.1 -0.8,3.8 -2.44,3.8 -1.22,0 -1.99,-0.94 -1.99,-2.01 0,-0.83 0.57,-1.99 2.02,-1.99 0.87,0 1.39,0.52 1.44,0.56 z"
           id="path3696" /><path
           style="fill:#000000;stroke-width:0"
           inkscape:connector-curvature="0"
           d="m 551.59,405.11 -1.19,0 c -0.09,-0.77 -0.45,-2.83 -0.9,-3.18 -0.27,-0.2 -2.96,-0.2 -3.44,-0.2 l -6.42,0 c 3.65,3.23 4.87,4.2 6.96,5.84 2.58,2.07 4.99,4.22 4.99,7.54 0,4.21 -3.69,6.79 -8.16,6.79 -4.31,0 -7.25,-3.03 -7.25,-6.23 0,-1.78 1.5,-1.96 1.86,-1.96 0.83,0 1.85,0.6 1.85,1.85 0,0.62 -0.25,1.84 -2.07,1.84 1.08,2.47 3.46,3.24 5.1,3.24 3.48,0 5.3,-2.71 5.3,-5.53 0,-3.04 -2.16,-5.44 -3.29,-6.69 l -8.39,-8.3 c -0.36,-0.31 -0.36,-0.39 -0.36,-1.36 l 14.36,0 z"
           id="path3698" /></g>    </g>
    <g
       id="g3772"
       transform="translate(312.85714,417.14286)">
      <g
         word-spacing="normal"
         letter-spacing="normal"
         font-size-adjust="none"
         font-stretch="normal"
         font-weight="normal"
         font-variant="normal"
         font-style="normal"
         stroke-miterlimit="10.433"
         xml:space="preserve"
         transform="matrix(0.61387756,0,0,-0.61387756,-107.42857,489.42856)"
         id="g3774"
         style="font-style:normal;font-variant:normal;font-weight:normal;font-stretch:normal;letter-spacing:normal;word-spacing:normal;text-anchor:start;fill:none;fill-opacity:1;fill-rule:evenodd;stroke:#000000;stroke-linecap:butt;stroke-linejoin:miter;stroke-miterlimit:10.43299961;stroke-dasharray:none;stroke-dashoffset:0;stroke-opacity:1"><path
           id="path3776"
           d="m 463.49,410.09 -0.05,-0.18 -0.04,-0.17 -0.05,-0.16 -0.04,-0.15 -0.04,-0.15 -0.05,-0.13 -0.05,-0.13 -0.05,-0.12 -0.05,-0.11 -0.06,-0.11 -0.07,-0.1 -0.07,-0.09 -0.07,-0.09 -0.09,-0.07 -0.09,-0.08 -0.11,-0.06 -0.11,-0.07 -0.13,-0.05 -0.13,-0.05 -0.15,-0.05 -0.16,-0.04 -0.09,-0.02 -0.09,-0.01 -0.09,-0.02 -0.1,-0.02 -0.1,-0.01 -0.1,-0.01 -0.11,-0.01 -0.12,-0.02 -0.11,-0.01 -0.13,-0.01 -0.12,0 -0.13,-0.01 -0.14,-0.01 -0.14,0 -0.14,-0.01 -0.15,0 -0.16,-0.01 -0.16,0 -0.16,0 -0.17,0 -0.18,0 -0.18,0 c -0.85,0 -1.35,0 -1.35,-1 0,-0.55 0.46,-0.55 1.35,-0.55 l 17.78,0 c 7.87,0 13.75,5.87 13.75,10.76 0,3.58 -2.89,6.47 -7.72,7.02 5.19,0.95 10.42,4.64 10.42,9.38 0,3.68 -3.3,6.87 -9.28,6.87 l -0.69,-1.55 c 4.38,0 5.42,-2.93 5.42,-5.12 0,-4.39 -4.28,-9.13 -10.35,-9.13 l -7.27,0 -0.3,-1.09 9.41,0 c 4.78,0 5.73,-3.69 5.73,-5.83 0,-4.94 -4.43,-9.76 -10.31,-9.76 l -6.78,0 c -0.69,0 -0.8,0 -1.09,0.04 -0.5,0.05 -0.64,0.1 -0.64,0.5 0,0.14 0,0.25 0.25,1.14 l 3.43,13.91 0.3,1.09 3.08,12.36 c 0.45,1.74 0.54,1.89 2.7,1.89 l 6.42,0 0.69,1.55 -16.73,0 c -0.94,0 -1.44,0 -1.44,-1 0,-0.55 0.44,-0.55 1.39,-0.55 0.09,0 1.05,0 1.89,-0.09 0.89,-0.11 1.34,-0.16 1.34,-0.8 0,-0.2 -0.04,-0.36 -0.2,-0.95 z"
           inkscape:connector-curvature="0"
           style="fill:#000000;stroke-width:0" /><path
           id="path3778"
           d="m 517.65,419.01 0.09,0.21 0.1,0.2 0.05,0.1 0.06,0.1 0.06,0.1 0.07,0.1 0.07,0.1 0.08,0.1 0.08,0.09 0.08,0.09 0.09,0.1 0.1,0.08 0.1,0.09 0.11,0.08 0.12,0.08 0.12,0.08 0.13,0.07 0.13,0.07 0.15,0.07 0.15,0.06 0.16,0.06 0.16,0.05 0.18,0.05 0.19,0.04 0.19,0.03 0.2,0.04 0.22,0.02 0.22,0.02 0.23,0.01 0.25,0.01 0,1.25 c -1.02,-0.11 -2.38,-0.14 -3.39,-0.14 -1.4,0 -3.97,0.14 -4.18,0.14 l 0,-1.25 c 1.28,0 2.41,-0.56 2.41,-1.64 0,-0.25 -0.08,-0.49 -0.19,-0.74 l -7.2,-16.82 -7.53,17.67 c -0.21,0.4 -0.21,0.48 -0.21,0.59 0,0.94 1.82,0.94 2.75,0.94 l 0,1.25 c -1.75,-0.06 -3.96,-0.14 -5.18,-0.14 -1.75,0 -4.36,0.14 -4.47,0.14 l 0,-1.25 0.59,0 c 1.88,0 2.47,-0.17 2.92,-1.25 l 9.07,-21.19 c 0.25,-0.56 0.34,-0.81 1.01,-0.81 0.35,0 0.69,0 1.02,0.73 z"
           inkscape:connector-curvature="0"
           style="fill:#000000;stroke-width:0" /><path
           id="path3780"
           d="m 529.8,399.32 0,-0.09 0,-0.11 -0.01,-0.12 0,-0.13 0,-0.14 -0.01,-0.15 -0.01,-0.15 -0.02,-0.17 -0.01,-0.17 -0.03,-0.18 -0.02,-0.19 -0.04,-0.19 -0.04,-0.2 -0.04,-0.21 -0.05,-0.21 -0.06,-0.22 -0.07,-0.22 -0.08,-0.22 -0.08,-0.23 -0.1,-0.23 -0.1,-0.23 -0.12,-0.24 -0.12,-0.23 -0.14,-0.24 -0.15,-0.24 -0.16,-0.24 -0.18,-0.24 -0.18,-0.24 -0.21,-0.24 -0.21,-0.23 -0.23,-0.24 -0.25,-0.23 c -0.14,-0.14 -0.25,-0.25 -0.25,-0.42 0,-0.22 0.25,-0.53 0.48,-0.53 0.46,0 3.46,2.76 3.46,6.96 0,2.1 -0.8,3.8 -2.44,3.8 -1.22,0 -1.99,-0.94 -1.99,-2.01 0,-0.83 0.57,-1.99 2.02,-1.99 0.87,0 1.39,0.52 1.44,0.56 z"
           inkscape:connector-curvature="0"
           style="fill:#000000;stroke-width:0" /><path
           id="path3782"
           d="m 543.51,410.4 0.25,0 0.25,-0.02 0.25,-0.03 0.23,-0.04 0.24,-0.05 0.22,-0.06 0.22,-0.07 0.22,-0.08 0.21,-0.1 0.2,-0.1 0.2,-0.12 0.18,-0.12 0.19,-0.14 0.17,-0.15 0.17,-0.16 0.16,-0.17 0.15,-0.18 0.14,-0.19 0.14,-0.2 0.12,-0.22 0.12,-0.22 0.11,-0.24 0.1,-0.24 0.09,-0.26 0.08,-0.27 0.07,-0.28 0.06,-0.29 0.04,-0.3 0.04,-0.31 0.03,-0.32 0.02,-0.33 0,-0.35 c 0,-4.33 -2.51,-5.61 -4.53,-5.61 -1.39,0 -4.47,0.38 -5.92,2.44 1.62,0.06 2.02,1.22 2.02,1.95 0,1.11 -0.85,1.91 -1.93,1.91 -0.97,0 -1.95,-0.59 -1.95,-2.02 0,-3.28 3.63,-5.4 7.85,-5.4 4.84,0 8.18,3.25 8.18,6.73 0,2.72 -2.22,5.44 -6.06,6.24 3.66,1.33 4.98,3.93 4.98,6.06 0,2.75 -3.17,4.81 -7.03,4.81 -3.87,0 -6.82,-1.89 -6.82,-4.67 0,-1.19 0.76,-1.84 1.81,-1.84 1.07,0 1.76,0.79 1.76,1.76 0,1.02 -0.69,1.75 -1.76,1.81 1.22,1.55 3.61,1.93 4.9,1.93 1.57,0 3.77,-0.77 3.77,-3.8 0,-1.47 -0.48,-3.06 -1.39,-4.14 -1.16,-1.33 -2.13,-1.41 -3.88,-1.5 -0.87,-0.08 -0.93,-0.08 -1.11,-0.11 -0.07,0 -0.35,-0.06 -0.35,-0.45 0,-0.49 0.31,-0.49 0.9,-0.49 z"
           inkscape:connector-curvature="0"
           style="fill:#000000;stroke-width:0" /></g>    </g>
  </g>
</svg>
